<?xml version="1.0" standalone="no"?>
<!DOCTYPE svg PUBLIC "-//W3C//DTD SVG 20010904//EN"
 "http://www.w3.org/TR/2001/REC-SVG-20010904/DTD/svg10.dtd">
<svg version="1.0" xmlns="http://www.w3.org/2000/svg"
 width="890.000000pt" height="592.000000pt" viewBox="0 0 890.000000 592.000000"
 preserveAspectRatio="xMidYMid meet">

<g transform="translate(0.000000,592.000000) scale(0.100000,-0.100000)"
fill="#000000" stroke="none">
<path d="M32 2948 l3 -2933 4407 -3 4408 -2 2 2925 c2 1609 2 2930 0 2935 -3
7 -1483 10 -4413 10 l-4409 0 2 -2932z m8768 -3 l0 -2885 -4355 0 -4355 0 0
2885 0 2885 4355 0 4355 0 0 -2885z"/>
<path d="M870 4810 l0 -480 590 0 c649 0 631 2 685 -62 17 -19 460 -649 985
-1401 l955 -1366 618 -1 617 0 0 1415 0 1416 553 -3 c530 -4 555 -4 629 -25
324 -91 566 -328 665 -650 24 -81 27 -102 27 -258 0 -155 -3 -177 -27 -256
-34 -112 -64 -177 -125 -269 -94 -144 -251 -274 -408 -340 -164 -68 -261 -80
-646 -80 l-298 0 0 -476 0 -476 408 5 c435 5 472 8 672 64 435 119 821 403
1081 793 65 98 169 311 207 425 132 394 132 821 1 1207 -51 153 -93 244 -175
379 -310 515 -843 849 -1448 908 -126 13 -2442 16 -2449 4 -2 -5 -2 -221 1
-480 l4 -473 120 0 c133 0 170 -11 213 -62 13 -16 29 -46 35 -67 7 -25 9 -280
8 -736 l-3 -698 -858 1226 c-472 675 -872 1238 -888 1251 -16 14 -46 30 -67
36 -24 6 -325 10 -859 10 l-823 0 0 -480z"/>
<path d="M870 3490 l0 -480 58 0 c74 0 124 -14 162 -47 63 -52 60 -16 60 -773
l0 -690 480 0 480 0 0 1089 0 1090 -62 92 c-80 121 -133 174 -183 188 -26 7
-202 11 -517 11 l-478 0 0 -480z"/>
<path d="M951 1204 c-20 -26 -21 -38 -21 -338 0 -266 2 -315 16 -334 16 -24
31 -27 54 -12 12 8 16 50 20 242 l5 233 92 -190 c130 -268 136 -279 168 -290
23 -8 30 -6 46 14 18 22 19 44 19 346 0 281 -2 326 -16 339 -20 20 -38 20 -55
-1 -11 -12 -15 -72 -19 -246 l-5 -230 -109 229 c-60 126 -116 237 -124 247
-21 24 -47 21 -71 -9z"/>
<path d="M1486 1208 c-14 -19 -16 -69 -16 -344 0 -304 1 -322 19 -338 25 -23
59 -13 72 21 5 13 9 83 9 154 l0 129 110 0 110 0 0 -129 c0 -71 4 -141 9 -154
13 -34 47 -44 72 -21 18 16 19 34 19 344 0 314 -1 328 -20 345 -16 15 -25 16
-44 7 -29 -13 -36 -45 -36 -178 l0 -104 -109 0 -109 0 -4 131 c-3 116 -5 132
-22 145 -27 20 -42 18 -60 -8z"/>
<path d="M2029 1213 c-20 -23 -25 -636 -6 -673 17 -33 51 -37 71 -8 24 33 24
642 0 676 -18 26 -46 29 -65 5z"/>
<path d="M3060 1212 c-16 -13 -41 -86 -105 -307 -47 -160 -85 -307 -85 -327 0
-37 20 -68 45 -68 21 0 40 36 60 113 l18 68 105 -3 105 -3 20 -70 c19 -70 40
-105 62 -105 22 0 45 36 45 70 0 30 -129 484 -166 588 -23 61 -62 78 -104 44z
m78 -275 c18 -65 32 -122 32 -127 0 -6 -33 -10 -76 -10 -57 0 -75 3 -72 13 3
6 20 67 38 135 18 67 36 119 40 115 4 -4 21 -61 38 -126z"/>
<path d="M3439 1211 l-24 -19 -3 -314 c-2 -332 1 -360 44 -366 44 -6 49 17 54
255 l5 225 100 -213 c127 -271 152 -302 201 -248 18 20 19 41 19 344 0 339 -2
355 -45 355 -40 0 -45 -23 -50 -264 l-5 -231 -22 50 c-53 123 -205 430 -216
437 -19 12 -33 9 -58 -11z"/>
<path d="M4118 1216 c-56 -20 -85 -42 -118 -88 -46 -63 -64 -137 -65 -258 0
-168 47 -275 145 -330 67 -37 166 -36 238 5 87 47 92 59 92 195 0 147 -2 150
-118 150 -77 0 -83 -1 -99 -26 -15 -24 -15 -29 -2 -53 13 -23 22 -26 72 -29
l57 -3 0 -59 0 -58 -46 -22 c-84 -41 -169 -16 -210 62 -26 51 -38 166 -25 244
14 82 38 126 83 154 52 31 104 27 142 -13 17 -18 39 -47 48 -65 21 -39 51 -42
73 -8 34 51 -17 155 -91 191 -50 24 -129 29 -176 11z"/>
<path d="M4835 1211 c-107 -51 -165 -171 -165 -344 1 -184 70 -317 182 -348
95 -25 185 14 232 100 48 89 44 187 -7 179 -21 -3 -31 -17 -63 -96 -48 -118
-173 -109 -221 16 -22 58 -25 214 -4 285 8 27 29 64 46 83 26 27 40 34 71 34
53 0 79 -20 115 -91 34 -68 51 -79 79 -54 54 49 -16 191 -115 236 -51 24 -100
23 -150 0z"/>
<path d="M5344 1206 c-89 -41 -141 -143 -151 -296 -7 -107 8 -187 49 -270 45
-89 103 -125 197 -125 140 0 215 88 242 282 12 87 -3 215 -33 285 -11 26 -40
65 -63 87 -70 65 -154 78 -241 37z m177 -126 c48 -50 63 -114 57 -241 -7 -144
-55 -219 -141 -219 -32 0 -46 7 -77 38 -49 48 -64 102 -64 222 -1 85 3 102 27
153 32 64 62 86 121 87 33 0 45 -6 77 -40z"/>
<path d="M6935 1213 c-9 -9 -21 -28 -27 -42 -20 -53 -168 -581 -168 -599 0
-33 33 -66 58 -58 17 6 27 24 43 79 11 40 22 78 25 85 2 8 33 12 107 12 l104
0 18 -62 c23 -85 42 -118 65 -118 22 0 50 36 50 65 0 11 -40 155 -89 320 -68
229 -94 303 -111 317 -28 22 -54 23 -75 1z m74 -263 c18 -63 34 -123 37 -132
5 -16 -3 -18 -70 -18 -43 0 -76 4 -76 10 0 9 56 222 66 249 7 21 9 16 43 -109z"/>
<path d="M7310 1208 c-19 -21 -20 -34 -20 -344 0 -280 2 -325 16 -338 20 -20
38 -20 55 1 11 12 15 71 19 242 l5 226 65 -135 c142 -296 163 -334 194 -345
24 -8 31 -6 47 14 18 22 19 44 19 340 0 270 -2 320 -16 339 -19 28 -39 28 -58
0 -13 -19 -16 -60 -16 -247 0 -126 -4 -221 -9 -215 -4 5 -56 110 -115 234
-124 260 -138 279 -186 228z"/>
<path d="M7806 1214 c-33 -32 -25 -60 74 -269 l60 -127 0 -132 c0 -140 10
-176 50 -176 40 0 50 36 50 176 l0 131 80 169 c44 93 80 176 80 185 0 9 -8 27
-18 39 -34 42 -54 21 -123 -130 -35 -76 -67 -136 -70 -132 -4 4 -30 59 -58
122 -75 167 -88 181 -125 144z"/>
<path d="M2425 1200 c-19 -21 -20 -36 -20 -330 0 -382 -12 -354 155 -348 133
4 164 16 210 80 45 62 63 136 64 258 1 129 -16 205 -57 267 -50 74 -82 87
-217 91 -108 4 -116 3 -135 -18z m249 -119 c46 -43 59 -96 54 -228 -6 -181
-36 -223 -158 -223 l-60 0 0 241 0 241 70 -4 c56 -3 74 -8 94 -27z"/>
<path d="M5794 1206 c-18 -14 -19 -31 -22 -328 -2 -325 1 -359 40 -366 8 -2
23 4 32 13 14 14 16 50 16 272 0 141 3 254 6 250 4 -3 26 -111 49 -239 24
-128 48 -245 53 -259 17 -44 63 -52 87 -15 9 13 36 133 61 267 25 134 47 246
50 248 2 2 4 -110 4 -251 0 -234 1 -256 18 -271 25 -23 38 -21 56 5 14 19 16
68 16 335 0 300 -1 314 -20 333 -26 26 -100 28 -122 3 -9 -11 -31 -102 -53
-218 -21 -110 -41 -208 -45 -219 -4 -11 -24 70 -49 203 -25 129 -49 228 -58
236 -19 19 -93 19 -119 1z"/>
<path d="M6392 1204 c-22 -15 -22 -16 -22 -338 0 -306 1 -324 19 -340 26 -24
57 -13 70 26 6 17 11 78 11 134 l0 104 61 0 c119 0 185 42 210 132 16 60 8
165 -17 213 -32 64 -85 85 -209 85 -75 0 -106 -4 -123 -16z m211 -105 c31 -14
47 -48 47 -100 0 -31 -7 -47 -29 -70 -26 -26 -36 -29 -90 -29 l-61 0 0 105 0
105 55 0 c30 0 65 -5 78 -11z"/>
</g>
</svg>
